<svg xmlns="http://www.w3.org/2000/svg" viewBox="0 0 56 56"><path fill="#333333" d="M28 51.906c13.055 0 23.906-10.828 23.906-23.906c0-13.055-10.875-23.906-23.93-23.906C14.899 4.094 4.095 14.945 4.095 28c0 13.078 10.828 23.906 23.906 23.906m.047-11.718c-1.242 0-2.016-.774-1.992-1.993l.234-7.101l-6.422 4.125c-.352.258-.727.375-1.219.375c-.96 0-1.875-.75-1.875-1.969c0-.75.375-1.29 1.125-1.71l6.68-3.75l-6.703-3.68c-.727-.446-1.102-.962-1.102-1.758c0-1.22.914-1.946 1.875-1.946c.492 0 .867.117 1.22.328l6.421 4.078l-.234-7.289c-.024-1.242.75-2.039 1.992-2.039c1.218 0 1.922.75 1.898 2.04l-.234 7.288l6.422-4.101a2.25 2.25 0 0 1 1.218-.328c.961 0 1.876.75 1.876 1.945c0 .774-.376 1.313-1.126 1.758l-6.726 3.703l6.726 3.75c.75.445 1.126.961 1.126 1.734c0 1.196-.915 1.97-1.876 1.97c-.492 0-.867-.118-1.218-.352l-6.422-4.172l.234 7.101c.024 1.266-.68 1.992-1.898 1.992"/></svg>
